# xmcd
#
# Track frame offsets:
# 150
# 27505
# 50535
# 78120
# 89737
#
# Disc length: 1620 seconds
#
#
# Revision: 0
# Processed by: cddbd v1.5.2PL0 Copyright (c) Steve Scherf et al.
# Submitted via: FreeRIP 2.943 
#
DISCID=38065205
DTITLE=Tundra - s-t [final recordings]
DYEAR=2006
DGENRE=Bebob
TTITLE0=sanctioned light
TTITLE1=pursuit with spears
TTITLE2=speechless
TTITLE3=bow hunter
TTITLE4=inner moon
EXTD=ripped/spread by cleve
EXTT0=
EXTT1=
EXTT2=
EXTT3=
EXTT4=
PLAYORDER=
